<svg id="Ebene_1" data-name="Ebene 1" xmlns="http://www.w3.org/2000/svg" viewBox="0 0 2189.17 282.77"><defs><style>.cls-1{fill:#fff;}</style></defs><title>Bundesliga_logo</title><path id="path9" class="cls-1" d="M-697.82,574.4l-4.28-.82,4.83-1.36c25.72-6.4,34.84-17.42,34.84-41.51,0-31.58-15-48.73-58.39-48.73h-92.89V669h96.57c42,0,57.57-17.69,57.57-50.9C-659.57,591.75-668.55,581-697.82,574.4Zm-71.45-60.5h39c16.13,0,22.53,7.55,22.53,23.55s-7,22.79-22.53,22.79h-39.13Zm41.65,123.52h-41.65V589.17h41.65c16,0,22.79,7.21,22.79,24.36l.14-.07C-704.69,630.34-710.88,637.28-727.62,637.42ZM-513.39,482V606.52c0,20.62-9.39,28.38-34.57,28.38s-34.57-8-34.57-28.38V482h-46.62V608.16l.13-.08c0,44,25.32,63.84,81.06,63.84s81.18-20.08,81.18-64V482Zm221.85,0V617l-79.28-135h-56.76V668.92h43.35v-135L-304.81,669H-248V482.25Zm165.17.27h-83.3L-209.74,669h83.37c63.69,0,82.48-28.92,82.48-93.5C-43.89,509.07-61,482.25-126.37,482.25ZM-128,633.33l-35.38.27V517.91H-128c27.29,0,36.14,14,36.14,57.58S-100.79,633.33-128,633.33Zm164.62-.54V592h69.9V556.84H36.61v-39.2h84.12V482H-10V668.45H122.63V632.79Zm206.68-72.41L213,554c-15-3.26-20.42-6.74-20.42-18.78,0-14.22,7.76-20.42,30.83-20.42a170,170,0,0,1,56.76,9.94V488.31A169.64,169.64,0,0,0,220.7,478.1c-48.52,0-72.61,17.83-72.61,58.66,0,31.92,10.75,44.92,43.14,51.73l31.1,6.39c17.15,3.47,21.17,7.22,21.17,19.81,0,14.76-9.39,20.41-30.83,20.41a192,192,0,0,1-62.41-10.21v36.75a186.59,186.59,0,0,0,62.89,9.6c50.22,0,74.85-18.17,74.85-58.12C288,579.64,278.41,567.86,243.29,560.38ZM367,633.06V482H320.4V668.72H447.11V633.06ZM476.24,482V668.72h46.62V482Zm166.93,78.94V593h34.58v41.79a179,179,0,0,1-24.37,1.63c-37,0-49.81-15.17-49.81-61.24,0-44.24,12.31-60,51.45-60a184.9,184.9,0,0,1,57.84,9.94V489a170.44,170.44,0,0,0-61.59-10.48c-64.72,0-95.27,28.65-95.27,96.71s30.42,96.7,95.27,96.7a209,209,0,0,0,64.59-9.66V560.72ZM861.69,482H802.21L735.52,668.72H782l13.14-39.13h73l13.13,39.13h46.89Zm-57,113.85L832,511.45l26.61,84.38Z" transform="translate(1261.06 -432.53)"/><path class="cls-1" d="M-1261.06,432.53V715.3h353.45V432.53Zm291.38,148.85c.2.71-.43,1.18-1.7,2.12l-.78.43.26.51c.19.33-.12.83-.66,1.09l-1.16.58c-.53.29-1.11.23-1.28-.1l-.25-.48-1.47.73.25.49c.16.34-.16.83-.71,1.08l-1.18.56c-.55.25-1.11.17-1.27-.17l-.22-.44c-4.53,2.12-9.59,4.39-14.83,6.81l.31.67c.17.33-.16.82-.68,1.06l-1.2.57c-.55.24-1.13.16-1.25-.18l-.34-.66-1.67.82.32.68c.16.35-.15.81-.71,1.08l-1.17.54c-.56.24-1.11.18-1.28-.16l-.3-.65c-2.37.95-5,1.38-6.84-2.17-.81-1.64-.85-5.39-1.47-7.38a2,2,0,0,0-1.53-1.23c-23-4.41-30.83.51-45.58-3.14-4.63-1.14-7.16-5.4-12.89-5.47-12.46-.37-16.14-.2-29.65-.71-.58,2-.65,2.38-.65,2.38l-47.53-.21,7.27,3.55,2.32,21s-1.93.55-2.48.62c.46,4.15.89,9.84,1.14,14.93.2,4.57.45,9.33.4,12.38a11.87,11.87,0,0,1-1.38,5.66,13,13,0,0,1-3.56,3.87c-.44.32-2.28,1.56-4.4,2.77s-4.66,2.58-6,3.2a16.5,16.5,0,0,0,.68,1.63c-28.82,14-64.65,18.73-76.25,40.93-1.39,2.58-6.06,1.24-6.19-1.55v-4.48h-.42c-.37,0-.66-.51-.63-1.11v-1.32c0-.59.36-1.06.72-1.05h.49a24.39,24.39,0,0,1,.73-3.79l-.44-.16c-.35-.12-.45-.7-.26-1.26l.43-1.21c.2-.58.63-.92,1-.81l.43.15c2.06-4.81,6.05-6.93,7.89-11.48l-.29-.12c-.37-.13-.49-.69-.27-1.26l.43-1.22c.2-.58.65-.92,1-.79l.32.11c.27-.68.59-1.38,1-2.12l-.39-.27c-.33-.21-.33-.77,0-1.29l.71-1.09c.3-.49.82-.75,1.14-.54l.17.09h.16a.24.24,0,0,0,.23-.1c.19-.2.38-.39.58-.58a5.22,5.22,0,0,1,6.11-.07c1.82,1.1,8.92,5.13,15.74-1,11.27-10.11,24.45-23.83,34.35-24.31-2.69-5.8-7.36-17.93-7.88-22.4l-3.22-.68c-1.73-3.73-5.94-20.94-7.14-33.88,0,0-1.38-14,0-18.87-.75-.07-2.15,1.07-2.53,1.08-1.82-4.44,4.06-42,9.89-53l8.94-3.55c-.92-.11-7.38-.4-24.37-1.78-9.54,8.43-20.5,17.49-26.05,22.41-1,.69-2.53,6.06-2.53,6.06a63.07,63.07,0,0,1-5.42,4.28c-3.44,2.41-11.85,4.27-13.68,1.39-.4-.71-.34-1,0-1.39,1.32-1.38,6.23-3.7,7.89-6.82-2.68,1.39-5.68,2.77-8,2.53-1,0-1.56-2.56-.23-3,3.56-1.51,6.39-2.16,8.5-5.12s4.48-4.76,7.73-4.83c0,0,15.79-20.63,25.11-30.48,2.57-2.68,7.36-1.79,7.36-1.79l.79-3.13s31.87-3.82,46.78,1.1c-.34-9,3.7-21,17.82-21,7.25,0,17.94,6.42,19.4,14.21.43,2.4-.95,4-1.69,7-1.25,4.58.51,9.69,0,11.29-.4,1.31-1.89,1.2-3.19,3a37.48,37.48,0,0,0-2.91,5.54l-1.93,4.32-9.94-.72c-3.64,7.85-11.1,23.86-13.72,39.73,3.91.33,14.7,1.77,24.54,3.14s18.68,2.64,18.68,2.64l.86,2.89s14.92,1.79,27.13,7.6c2.77.66,9.58-.36,14.08,1.7.31-.17,1.06-.94,1.39-1.15,15.92,4.9,29.09,13.25,44.44,17,0,0,7.17,1.75,9.58,2.22a94.53,94.53,0,0,0,12.32,1.57c4.92.39,7.64.32,11.23.54,2.56.14,5.66-.28,6.67,3.43Zm42.44-28.76a19.64,19.64,0,0,1-19.68,19.59,19.64,19.64,0,0,1-19.59-19.68,19.65,19.65,0,0,1,19.68-19.59l-.06,0a19.64,19.64,0,0,1,19.65,19.6Z" transform="translate(1261.06 -432.53)"/></svg>