<?xml version="1.0" encoding="utf-8"?>
<!-- Generator: Adobe Illustrator 23.0.6, SVG Export Plug-In . SVG Version: 6.00 Build 0)  -->
<svg version="1.1"
	 id="Ebene_1" xmlns:cc="http://creativecommons.org/ns#" xmlns:dc="http://purl.org/dc/elements/1.1/" xmlns:rdf="http://www.w3.org/1999/02/22-rdf-syntax-ns#" xmlns:svg="http://www.w3.org/2000/svg"
	 xmlns="http://www.w3.org/2000/svg" xmlns:xlink="http://www.w3.org/1999/xlink" x="0px" y="0px" viewBox="0 0 300 300"
	 style="enable-background:new 0 0 300 300;" xml:space="preserve">
<style type="text/css">
	.st0{fill:#FFFFFF;}
</style>
<path id="path9" class="st0" d="M-697.8,574.4l-4.3-0.8l4.8-1.4c25.7-6.4,34.8-17.4,34.8-41.5c0-31.6-15-48.7-58.4-48.7h-92.9v187
	h96.6c42.1,0,57.6-17.7,57.6-50.9C-659.6,591.8-668.5,581-697.8,574.4z M-769.3,513.9h39c16.1,0,22.5,7.6,22.5,23.6
	c0,16-7,22.8-22.5,22.8h-39.1L-769.3,513.9z M-727.6,637.4h-41.6v-48.3h41.6c16,0,22.8,7.2,22.8,24.4l0.1-0.1
	C-704.7,630.3-710.9,637.3-727.6,637.4z M-513.4,482v124.5c0,20.6-9.4,28.4-34.6,28.4c-25.2,0-34.6-8-34.6-28.4V482h-46.6v126.2
	l0.1-0.1c0,44,25.3,63.8,81.1,63.8c55.7,0,81.2-20.1,81.2-64V482H-513.4z M-291.5,482v135l-79.3-135h-56.8v186.9h43.3v-135
	l79.4,135.1h56.8V482.3L-291.5,482z M-126.4,482.3h-83.3l-0.1,186.7h83.4c63.7,0,82.5-28.9,82.5-93.5
	C-43.9,509.1-61,482.3-126.4,482.3z M-128,633.3l-35.4,0.3V517.9h35.4c27.3,0,36.1,14,36.1,57.6C-91.9,619.1-100.8,633.3-128,633.3z
	 M36.6,632.8V592h69.9v-35.1H36.6v-39.2h84.1V482H-10v186.5h132.6v-35.7H36.6z M243.3,560.4L213,554c-15-3.3-20.4-6.7-20.4-18.8
	c0-14.2,7.8-20.4,30.8-20.4c19.4,0.1,38.5,3.4,56.8,9.9v-36.4c-19.1-6.9-39.2-10.4-59.5-10.2c-48.5,0-72.6,17.8-72.6,58.7
	c0,31.9,10.8,44.9,43.1,51.7l31.1,6.4c17.1,3.5,21.2,7.2,21.2,19.8c0,14.8-9.4,20.4-30.8,20.4c-21.2,0.1-42.3-3.4-62.4-10.2v36.8
	c20.3,6.8,41.5,10,62.9,9.6c50.2,0,74.8-18.2,74.8-58.1C288,579.6,278.4,567.9,243.3,560.4z M367,633.1V482h-46.6v186.7h126.7v-35.7
	H367z M476.2,482v186.7h46.6V482H476.2z M643.2,560.9V593h34.6v41.8c-8.1,1.1-16.2,1.6-24.4,1.6c-37,0-49.8-15.2-49.8-61.2
	c0-44.2,12.3-60,51.5-60c19.7,0.2,39.2,3.6,57.8,9.9V489c-19.7-7.3-40.6-10.8-61.6-10.5c-64.7,0-95.3,28.6-95.3,96.7
	c0,68,30.4,96.7,95.3,96.7c21.9,0.2,43.7-3.1,64.6-9.7V560.7L643.2,560.9z M861.7,482h-59.5l-66.7,186.7H782l13.1-39.1h73l13.1,39.1
	h46.9L861.7,482z M804.7,595.8l27.2-84.4l26.6,84.4H804.7z"/>
<path class="st0" d="M-1261.1,432.5v282.8h353.4V432.5H-1261.1z M-969.7,581.4c0.2,0.7-0.4,1.2-1.7,2.1l-0.8,0.4l0.3,0.5
	c0.2,0.3-0.1,0.8-0.7,1.1l-1.2,0.6c-0.5,0.3-1.1,0.2-1.3-0.1l-0.2-0.5l-1.5,0.7l0.2,0.5c0.2,0.3-0.2,0.8-0.7,1.1l-1.2,0.6
	c-0.5,0.2-1.1,0.2-1.3-0.2l-0.2-0.4c-4.5,2.1-9.6,4.4-14.8,6.8l0.3,0.7c0.2,0.3-0.2,0.8-0.7,1.1l-1.2,0.6c-0.5,0.2-1.1,0.2-1.3-0.2
	l-0.3-0.7l-1.7,0.8l0.3,0.7c0.2,0.3-0.1,0.8-0.7,1.1l-1.2,0.5c-0.6,0.2-1.1,0.2-1.3-0.2l-0.3-0.6c-2.4,1-5,1.4-6.8-2.2
	c-0.8-1.6-0.9-5.4-1.5-7.4c-0.3-0.6-0.8-1.1-1.5-1.2c-23-4.4-30.8,0.5-45.6-3.1c-4.6-1.1-7.2-5.4-12.9-5.5
	c-12.5-0.4-16.1-0.2-29.7-0.7c-0.6,1.9-0.6,2.4-0.6,2.4l-47.5-0.2l7.3,3.5l2.3,21c0,0-1.9,0.5-2.5,0.6c0.5,4.2,0.9,9.8,1.1,14.9
	c0.2,4.6,0.4,9.3,0.4,12.4c0,2-0.5,3.9-1.4,5.7c-0.9,1.5-2.1,2.8-3.6,3.9c-0.4,0.3-2.3,1.6-4.4,2.8c-2.1,1.2-4.7,2.6-6,3.2
	c0.2,0.5,0.4,1.1,0.7,1.6c-28.8,14-64.7,18.7-76.2,40.9c-1.4,2.6-6.1,1.2-6.2-1.5v-4.5h-0.4c-0.4,0-0.7-0.5-0.6-1.1v-1.3
	c0-0.6,0.4-1.1,0.7-1.1h0.5c0.1-1.3,0.4-2.6,0.7-3.8l-0.4-0.2c-0.3-0.1-0.4-0.7-0.3-1.3l0.4-1.2c0.2-0.6,0.6-0.9,1-0.8l0.4,0.1
	c2.1-4.8,6-6.9,7.9-11.5l-0.3-0.1c-0.4-0.1-0.5-0.7-0.3-1.3l0.4-1.2c0.2-0.6,0.6-0.9,1-0.8l0.3,0.1c0.3-0.7,0.6-1.4,1-2.1l-0.4-0.3
	c-0.3-0.2-0.3-0.8,0-1.3l0.7-1.1c0.3-0.5,0.8-0.8,1.1-0.5l0.2,0.1h0.2c0.1,0,0.1,0,0.2-0.1c0.2-0.2,0.4-0.4,0.6-0.6
	c1.8-1.3,4.3-1.4,6.1-0.1c1.8,1.1,8.9,5.1,15.7-1c11.3-10.1,24.4-23.8,34.3-24.3c-2.7-5.8-7.4-17.9-7.9-22.4l-3.2-0.7
	c-1.7-3.7-5.9-20.9-7.1-33.9c0,0-1.4-14,0-18.9c-0.8-0.1-2.1,1.1-2.5,1.1c-1.8-4.4,4.1-42,9.9-53l8.9-3.5c-0.9-0.1-7.4-0.4-24.4-1.8
	c-9.5,8.4-20.5,17.5-26.1,22.4c-1,0.7-2.5,6.1-2.5,6.1s-2.8,2.5-5.4,4.3c-3.4,2.4-11.8,4.3-13.7,1.4c-0.4-0.7-0.3-1,0-1.4
	c1.3-1.4,6.2-3.7,7.9-6.8c-2.7,1.4-5.7,2.8-8,2.5c-1,0-1.6-2.6-0.2-3c3.6-1.5,6.4-2.2,8.5-5.1c2.1-3,4.5-4.8,7.7-4.8
	c0,0,15.8-20.6,25.1-30.5c2.6-2.7,7.4-1.8,7.4-1.8l0.8-3.1c0,0,31.9-3.8,46.8,1.1c-0.3-9,3.7-21,17.8-21c7.3,0,17.9,6.4,19.4,14.2
	c0.4,2.4-1,4-1.7,7c-1.3,4.6,0.5,9.7,0,11.3c-0.4,1.3-1.9,1.2-3.2,3c-1.1,1.8-2.1,3.6-2.9,5.5l-1.9,4.3l-9.9-0.7
	c-3.6,7.8-11.1,23.9-13.7,39.7c3.9,0.3,14.7,1.8,24.5,3.1c9.8,1.4,18.7,2.6,18.7,2.6l0.9,2.9c0,0,14.9,1.8,27.1,7.6
	c2.8,0.7,9.6-0.4,14.1,1.7c0.3-0.2,1.1-0.9,1.4-1.2c15.9,4.9,29.1,13.3,44.4,17c0,0,7.2,1.7,9.6,2.2c4.1,0.8,8.2,1.3,12.3,1.6
	c4.9,0.4,7.6,0.3,11.2,0.5C-973.7,578.1-970.6,577.6-969.7,581.4L-969.7,581.4z M-927.2,552.6c0,10.8-8.8,19.6-19.7,19.6
	c-10.8,0-19.6-8.8-19.6-19.7c0-10.8,8.8-19.6,19.7-19.6l-0.1,0C-936.1,533-927.3,541.7-927.2,552.6L-927.2,552.6z"/>
</svg>
