<svg id="레이어_1" data-name="레이어 1" xmlns="http://www.w3.org/2000/svg" viewBox="0 0 1689.57 1689.64"><defs><style>.cls-1{fill:#fff;}</style></defs><title>insta</title><path class="cls-1" d="M968.47,842c0-155.52,126-281.63,281.56-281.63S1531.66,686.48,1531.66,842,1405.55,1123.63,1250,1123.63,968.47,997.52,968.47,842m-152.24,0c0,239.59,194.21,433.8,433.8,433.8s433.81-194.21,433.81-433.8S1489.62,408.2,1250,408.2,816.24,602.4,816.24,842m783.4-451a101.38,101.38,0,1,0,101.42-101.34h0A101.42,101.42,0,0,0,1599.64,391M908.73,1529.67c-82.37-3.75-127.14-17.47-156.89-29.06-39.44-15.36-67.58-33.65-97.17-63.2s-47.91-57.66-63.2-97.1c-11.59-29.74-25.31-74.52-29.06-156.89-4.09-89.05-4.91-115.8-4.91-341.41s.88-252.28,4.91-341.4c3.75-82.37,17.58-127.06,29.06-156.89,15.36-39.44,33.65-67.59,63.2-97.17s57.66-47.91,97.17-63.2c29.74-11.59,74.52-25.31,156.89-29.06,89-4.09,115.8-4.91,341.3-4.91s252.29.87,341.41,4.92c82.37,3.76,127.06,17.58,156.89,29.07,39.44,15.28,67.58,33.64,97.17,63.19s47.84,57.73,63.19,97.17c11.6,29.74,25.32,74.52,29.07,156.89,4.09,89.12,4.91,115.8,4.91,341.41s-.82,252.28-4.91,341.4c-3.76,82.37-17.54,127.14-29.07,156.89-15.35,39.44-33.64,67.59-63.19,97.11s-57.73,47.83-97.17,63.19c-29.74,11.6-74.52,25.32-156.89,29.06-89,4.1-115.8,4.91-341.41,4.91s-252.28-.81-341.3-4.91M901.73,2.3C811.8,6.39,750.34,20.65,696.67,41.54,641.12,63.11,594,92,547,139s-75.88,94-97.45,149.66c-20.88,53.7-35.14,115.12-39.24,205.06s-5.11,118.87-5.11,348.3.95,258.22,5.11,348.3,18.36,151.36,39.24,205.06C471.14,1450.91,500,1498.09,547,1545s94,75.81,149.65,97.44c53.77,20.89,115.13,35.15,205.06,39.24,90.13,4.1,118.88,5.12,348.3,5.12s258.23-1,348.31-5.12,151.35-18.35,205.06-39.24c55.54-21.63,102.63-50.5,149.65-97.44s75.82-94.11,97.45-149.66c20.88-53.7,35.21-115.12,39.24-205.06,4.09-90.14,5-118.87,5-348.3s-1-258.22-5-348.3-18.36-151.39-39.24-205.06C2028.87,233.09,2000,186,1953.05,139s-94.11-75.87-149.59-97.44C1749.69,20.65,1688.27,6.33,1598.4,2.3c-90.09-4.12-118.87-5.12-348.26-5.12s-258.25,1-348.37,5.12" transform="translate(-405.22 2.82)"/></svg>