<svg id="레이어_1" data-name="레이어 1" xmlns="http://www.w3.org/2000/svg" viewBox="0 0 6.5 6.53"><defs><style>.cls-1{fill:#fff;}</style></defs><title>noun_Magnifying Glass</title><path class="cls-1" d="M27.66,8.46,26.45,7.25a.48.48,0,0,0-.59-.07l-.2-.2a2.42,2.42,0,0,0,.55-1.54,2.45,2.45,0,1,0-2.45,2.45,2.41,2.41,0,0,0,1.54-.56l.19.19a.52.52,0,0,0-.09.29.49.49,0,0,0,.15.35l1.21,1.21a.48.48,0,0,0,.34.14.48.48,0,0,0,.35-.14l.21-.21A.48.48,0,0,0,27.66,8.46Zm-3.9-1.08a1.95,1.95,0,1,1,1.95-1.94A2,2,0,0,1,23.76,7.38Z" transform="translate(-21.31 -2.99)"/></svg>