<svg id="레이어_1" data-name="레이어 1" xmlns="http://www.w3.org/2000/svg" viewBox="0 0 8004.72 71.71"><defs><style>.cls-1{fill:#fff;}</style></defs><title>pattern</title><polygon class="cls-1" points="137.28 0 65.57 71.71 0 71.71 71.72 0 137.28 0"/><polygon class="cls-1" points="268.41 0 196.69 71.71 131.13 71.71 202.84 0 268.41 0"/><polygon class="cls-1" points="399.53 0 327.81 71.71 262.25 71.71 333.97 0 399.53 0"/><polygon class="cls-1" points="530.65 0 458.94 71.71 393.38 71.71 465.09 0 530.65 0"/><polygon class="cls-1" points="661.78 0 590.06 71.71 524.5 71.71 596.21 0 661.78 0"/><polygon class="cls-1" points="792.9 0 721.19 71.71 655.62 71.71 727.34 0 792.9 0"/><polygon class="cls-1" points="924.02 0 852.31 71.71 786.75 71.71 858.46 0 924.02 0"/><polygon class="cls-1" points="1055.15 0 983.43 71.71 917.87 71.71 989.59 0 1055.15 0"/><polygon class="cls-1" points="1186.27 0 1114.56 71.71 1049 71.71 1120.71 0 1186.27 0"/><polygon class="cls-1" points="1317.4 0 1245.68 71.71 1180.12 71.71 1251.83 0 1317.4 0"/><polygon class="cls-1" points="1448.52 0 1376.81 71.71 1311.24 71.71 1382.96 0 1448.52 0"/><polygon class="cls-1" points="1579.64 0 1507.93 71.71 1442.37 71.71 1514.08 0 1579.64 0"/><polygon class="cls-1" points="1710.77 0 1639.05 71.71 1573.49 71.71 1645.21 0 1710.77 0"/><polygon class="cls-1" points="1841.89 0 1770.18 71.71 1704.62 71.71 1776.33 0 1841.89 0"/><polygon class="cls-1" points="1973.02 0 1901.3 71.71 1835.74 71.71 1907.45 0 1973.02 0"/><polygon class="cls-1" points="2104.14 0 2032.43 71.71 1966.86 71.71 2038.58 0 2104.14 0"/><polygon class="cls-1" points="2235.26 0 2163.55 71.71 2097.99 71.71 2169.7 0 2235.26 0"/><polygon class="cls-1" points="2366.39 0 2294.67 71.71 2229.11 71.71 2300.83 0 2366.39 0"/><polygon class="cls-1" points="2497.51 0 2425.8 71.71 2360.24 71.71 2431.95 0 2497.51 0"/><polygon class="cls-1" points="2628.64 0 2556.92 71.71 2491.36 71.71 2563.07 0 2628.64 0"/><polygon class="cls-1" points="2759.76 0 2688.05 71.71 2622.48 71.71 2694.2 0 2759.76 0"/><polygon class="cls-1" points="2890.88 0 2819.17 71.71 2753.61 71.71 2825.32 0 2890.88 0"/><polygon class="cls-1" points="3022.01 0 2950.29 71.71 2884.73 71.71 2956.45 0 3022.01 0"/><polygon class="cls-1" points="3153.13 0 3081.42 71.71 3015.86 71.71 3087.57 0 3153.13 0"/><polygon class="cls-1" points="3284.26 0 3212.54 71.71 3146.98 71.71 3218.69 0 3284.26 0"/><polygon class="cls-1" points="3415.38 0 3343.67 71.71 3278.1 71.71 3349.82 0 3415.38 0"/><polygon class="cls-1" points="3546.5 0 3474.79 71.71 3409.23 71.71 3480.94 0 3546.5 0"/><polygon class="cls-1" points="3677.63 0 3605.91 71.71 3540.35 71.71 3612.07 0 3677.63 0"/><polygon class="cls-1" points="3808.75 0 3737.04 71.71 3671.47 71.71 3743.19 0 3808.75 0"/><polygon class="cls-1" points="3939.88 0 3868.16 71.71 3802.6 71.71 3874.31 0 3939.88 0"/><polygon class="cls-1" points="4071 0 3999.28 71.71 3933.72 71.71 4005.44 0 4071 0"/><polygon class="cls-1" points="4202.12 0 4130.41 71.71 4064.85 71.71 4136.56 0 4202.12 0"/><polygon class="cls-1" points="4333.25 0 4261.53 71.71 4195.97 71.71 4267.68 0 4333.25 0"/><polygon class="cls-1" points="4464.37 0 4392.66 71.71 4327.09 71.71 4398.81 0 4464.37 0"/><polygon class="cls-1" points="4595.49 0 4523.78 71.71 4458.22 71.71 4529.93 0 4595.49 0"/><polygon class="cls-1" points="4726.62 0 4654.9 71.71 4589.34 71.71 4661.06 0 4726.62 0"/><polygon class="cls-1" points="4857.74 0 4786.03 71.71 4720.47 71.71 4792.18 0 4857.74 0"/><polygon class="cls-1" points="4988.87 0 4917.15 71.71 4851.59 71.71 4923.3 0 4988.87 0"/><polygon class="cls-1" points="5119.99 0 5048.28 71.71 4982.71 71.71 5054.43 0 5119.99 0"/><polygon class="cls-1" points="5251.11 0 5179.4 71.71 5113.84 71.71 5185.55 0 5251.11 0"/><polygon class="cls-1" points="5382.24 0 5310.52 71.71 5244.96 71.71 5316.68 0 5382.24 0"/><polygon class="cls-1" points="5513.36 0 5441.65 71.71 5376.09 71.71 5447.8 0 5513.36 0"/><polygon class="cls-1" points="5644.49 0 5572.77 71.71 5507.21 71.71 5578.92 0 5644.49 0"/><polygon class="cls-1" points="5775.61 0 5703.9 71.71 5638.33 71.71 5710.05 0 5775.61 0"/><polygon class="cls-1" points="5906.73 0 5835.02 71.71 5769.46 71.71 5841.17 0 5906.73 0"/><polygon class="cls-1" points="6037.86 0 5966.14 71.71 5900.58 71.71 5972.3 0 6037.86 0"/><polygon class="cls-1" points="6168.98 0 6097.27 71.71 6031.71 71.71 6103.42 0 6168.98 0"/><polygon class="cls-1" points="6300.11 0 6228.39 71.71 6162.83 71.71 6234.54 0 6300.11 0"/><polygon class="cls-1" points="6431.23 0 6359.52 71.71 6293.95 71.71 6365.67 0 6431.23 0"/><polygon class="cls-1" points="6562.35 0 6490.64 71.71 6425.08 71.71 6496.79 0 6562.35 0"/><polygon class="cls-1" points="6693.48 0 6621.76 71.71 6556.2 71.71 6627.92 0 6693.48 0"/><polygon class="cls-1" points="6824.6 0 6752.89 71.71 6687.33 71.71 6759.04 0 6824.6 0"/><polygon class="cls-1" points="6955.73 0 6884.01 71.71 6818.45 71.71 6890.16 0 6955.73 0"/><polygon class="cls-1" points="7086.85 0 7015.14 71.71 6949.57 71.71 7021.29 0 7086.85 0"/><polygon class="cls-1" points="7217.97 0 7146.26 71.71 7080.7 71.71 7152.41 0 7217.97 0"/><polygon class="cls-1" points="7349.1 0 7277.38 71.71 7211.82 71.71 7283.54 0 7349.1 0"/><polygon class="cls-1" points="7480.22 0 7408.51 71.71 7342.94 71.71 7414.66 0 7480.22 0"/><polygon class="cls-1" points="7611.35 0 7539.63 71.71 7474.07 71.71 7545.78 0 7611.35 0"/><polygon class="cls-1" points="7742.47 0 7670.75 71.71 7605.19 71.71 7676.91 0 7742.47 0"/><polygon class="cls-1" points="7873.59 0 7801.88 71.71 7736.32 71.71 7808.03 0 7873.59 0"/><polygon class="cls-1" points="8004.72 0 7933 71.71 7867.44 71.71 7939.15 0 8004.72 0"/></svg>