<svg id="레이어_1" data-name="레이어 1" xmlns="http://www.w3.org/2000/svg" viewBox="0 0 1661.72 1350.99"><defs><style>.cls-1{fill:#fff;}</style></defs><title>twitter</title><path class="cls-1" d="M941.73,1517.49c627.1,0,970-519.71,970-970.38q0-22.14-1-44.09a693.59,693.59,0,0,0,170.06-176.6,679.62,679.62,0,0,1-195.79,53.69A342.26,342.26,0,0,0,2035,191.47a683.55,683.55,0,0,1-216.49,82.79,340.49,340.49,0,0,0-248.86-107.75c-188.28,0-341,152.73-341,341a340.54,340.54,0,0,0,8.84,77.77C954.19,571,702.93,435.3,534.78,228.94A341.45,341.45,0,0,0,640.33,684.26a338.44,338.44,0,0,1-154.4-42.66c-.05,1.43-.05,2.82-.05,4.35,0,165.17,117.51,303.08,273.51,334.33a340.27,340.27,0,0,1-154,5.85c43.4,135.51,169.26,234.12,318.48,236.88a683.82,683.82,0,0,1-423.44,146,692.84,692.84,0,0,1-81.32-4.73,964.8,964.8,0,0,0,522.61,153.2" transform="translate(-419.14 -166.51)"/></svg>